<svg width="20" height="20" viewBox="0 0 20 20" fill="none" xmlns="http://www.w3.org/2000/svg">
<path d="M9.998 0.00500488C15.515 0.00500488 19.995 4.485 19.995 10.002C19.995 15.52 15.515 20 9.998 20C4.48 20 0 15.52 0 10.002C0 4.485 4.48 0.00500488 9.998 0.00500488V0.00500488ZM9.998 1.505C5.308 1.505 1.5 5.312 1.5 10.002C1.5 14.692 5.308 18.5 9.998 18.5C14.688 18.5 18.495 14.692 18.495 10.002C18.495 5.312 14.688 1.505 9.998 1.505V1.505ZM4.949 10.391L8.8 13.821C8.942 13.949 9.121 14.011 9.299 14.011C9.501 14.011 9.704 13.93 9.851 13.769L15.804 7.26C15.935 7.117 16 6.93701 16 6.75801C16 6.34801 15.669 6.011 15.252 6.011C15.048 6.011 14.847 6.093 14.698 6.254L9.245 12.216L5.947 9.278C5.803 9.151 5.626 9.08801 5.448 9.08801C5.033 9.08801 4.7 9.423 4.7 9.834C4.7 10.039 4.784 10.243 4.949 10.391V10.391Z" fill="white"/>
</svg>
