<svg width="20" height="20" viewBox="0 0 20 20" fill="none" xmlns="http://www.w3.org/2000/svg">
<path d="M10.0019 0.00500488C15.5199 0.00500488 19.9999 4.485 19.9999 10.002C19.9999 15.52 15.5199 20 10.0019 20C4.48488 20 0.00488281 15.52 0.00488281 10.002C0.00488281 4.485 4.48488 0.00500488 10.0019 0.00500488V0.00500488ZM10.0019 1.505C5.31188 1.505 1.50488 5.312 1.50488 10.002C1.50488 14.692 5.31188 18.5 10.0019 18.5C14.6919 18.5 18.4999 14.692 18.4999 10.002C18.4999 5.312 14.6919 1.505 10.0019 1.505V1.505ZM10.0019 8.93001L12.7189 6.212C12.8649 6.066 13.0579 5.993 13.2499 5.993C13.6539 5.993 13.9999 6.318 13.9999 6.743C13.9999 6.936 13.9269 7.127 13.7809 7.274L11.0639 9.991L13.7909 12.719C13.9379 12.866 14.0109 13.058 14.0109 13.25C14.0109 13.677 13.6619 14 13.2609 14C13.0689 14 12.8769 13.927 12.7309 13.781L10.0019 11.053L7.27388 13.781C7.12788 13.927 6.93588 14 6.74388 14C6.34288 14 5.99288 13.677 5.99288 13.25C5.99288 13.058 6.06588 12.866 6.21288 12.719L8.94088 9.991L6.21888 7.269C6.07288 7.122 5.99988 6.931 5.99988 6.738C5.99988 6.313 6.34588 5.989 6.74988 5.989C6.94188 5.989 7.13488 6.062 7.28088 6.208L10.0019 8.93001Z" fill="white"/>
</svg>
