<svg width="16" height="18" viewBox="0 0 16 18" fill="none" xmlns="http://www.w3.org/2000/svg">
                                 <path d="M4.82857 0.622266L4.57143 1.125H1.14286C0.510714 1.125 0 1.62773 0 2.25C0 2.87227 0.510714 3.375 1.14286 3.375H14.8571C15.4893 3.375 16 2.87227 16 2.25C16 1.62773 15.4893 1.125 14.8571 1.125H11.4286L11.1714 0.622266C10.9786 0.239063 10.5821 0 10.15 0H5.85C5.41786 0 5.02143 0.239063 4.82857 0.622266V0.622266ZM14.8571 4.5H1.14286L1.9 16.418C1.95714 17.3074 2.70714 18 3.61071 18H12.3893C13.2929 18 14.0429 17.3074 14.1 16.418L14.8571 4.5Z" fill="white" />
                              </svg>