<svg width="15" height="15" viewBox="0 0 15 15" fill="none" xmlns="http://www.w3.org/2000/svg">
<path d="M13.8164 0.481201C13.1748 -0.1604 12.1377 -0.1604 11.4961 0.481201L10.6143 1.36011L13.4824 4.22827L14.3643 3.34644C15.0059 2.70483 15.0059 1.66772 14.3643 1.02612L13.8164 0.481201ZM5.05078 6.92651C4.87207 7.10522 4.73437 7.32495 4.65527 7.56812L3.78809 10.1697C3.70313 10.4216 3.77051 10.7 3.95801 10.8904C4.14551 11.0808 4.42383 11.1453 4.67871 11.0603L7.28027 10.1931C7.52051 10.1111 7.74023 9.97632 7.92187 9.79761L12.8232 4.89331L9.95215 2.02222L5.05078 6.92651V6.92651ZM2.8125 1.72046C1.25977 1.72046 0 2.98022 0 4.53296V12.033C0 13.5857 1.25977 14.8455 2.8125 14.8455H10.3125C11.8652 14.8455 13.125 13.5857 13.125 12.033V9.22046C13.125 8.7019 12.7061 8.28296 12.1875 8.28296C11.6689 8.28296 11.25 8.7019 11.25 9.22046V12.033C11.25 12.5515 10.8311 12.9705 10.3125 12.9705H2.8125C2.29395 12.9705 1.875 12.5515 1.875 12.033V4.53296C1.875 4.0144 2.29395 3.59546 2.8125 3.59546H5.625C6.14355 3.59546 6.5625 3.17651 6.5625 2.65796C6.5625 2.1394 6.14355 1.72046 5.625 1.72046H2.8125Z" fill="white"/>
</svg>
