<svg width="16" height="16" viewBox="0 0 16 16" fill="none" xmlns="http://www.w3.org/2000/svg">
<path fill-rule="evenodd" clip-rule="evenodd" d="M7.99894 2.99998L7.20636 2.00925C6.86457 1.58202 6.34711 1.33331 5.79998 1.33331H5.66561C4.74513 1.33331 3.99894 2.07951 3.99894 2.99998C3.99894 3.23701 4.04842 3.46249 4.13762 3.66665H2.66561C1.92923 3.66665 1.33228 4.2636 1.33228 4.99998V6.99998C1.33228 7.4935 1.60041 7.9244 1.99894 8.15494V12.6666C1.99894 13.7712 2.89437 14.6666 3.99894 14.6666H11.9989C13.1035 14.6666 13.9989 13.7712 13.9989 12.6666V8.15494C14.3975 7.9244 14.6656 7.4935 14.6656 6.99998V4.99998C14.6656 4.2636 14.0687 3.66665 13.3323 3.66665H11.8603C11.9495 3.46249 11.9989 3.23701 11.9989 2.99998C11.9989 2.07951 11.2528 1.33331 10.3323 1.33331H10.1979C9.65077 1.33331 9.13331 1.58202 8.79152 2.00925L7.99894 2.99998ZM8.74623 3.66665H10.3323C10.7005 3.66665 10.9989 3.36817 10.9989 2.99998C10.9989 2.63179 10.7005 2.33331 10.3323 2.33331H10.1979C9.95456 2.33331 9.72441 2.44393 9.57239 2.63395L8.74623 3.66665ZM2.66561 4.66665C2.48151 4.66665 2.33228 4.81589 2.33228 4.99998V6.99998C2.33228 7.18407 2.48151 7.33331 2.66561 7.33331H7.49894V4.66665H2.66561ZM8.49894 4.66665V7.33331H13.3323C13.5164 7.33331 13.6656 7.18407 13.6656 6.99998V4.99998C13.6656 4.81589 13.5164 4.66665 13.3323 4.66665H8.49894ZM4.99894 2.99998C4.99894 3.36817 5.29742 3.66665 5.66561 3.66665H7.25165L6.42549 2.63395C6.27348 2.44393 6.04333 2.33331 5.79998 2.33331H5.66561C5.29742 2.33331 4.99894 2.63179 4.99894 2.99998ZM7.49894 8.33331H2.99894V12.6666C2.99894 13.2189 3.44666 13.6666 3.99894 13.6666H7.49894V8.33331ZM8.49894 13.6666V8.33331H12.9989V12.6666C12.9989 13.2189 12.5512 13.6666 11.9989 13.6666H8.49894Z" fill="#4461F2"/>
</svg>
