<svg width="57" height="45" viewBox="0 0 57 45" fill="none" xmlns="http://www.w3.org/2000/svg">
<path d="M17.3336 10.7176C17.3336 8.18692 18.3163 5.88618 19.9204 4.17478C19.3095 4.04133 18.6758 3.96899 18.025 3.96899C13.1422 3.96899 9.18384 7.92723 9.18384 12.8102C9.18384 17.693 13.1421 21.6513 18.025 21.6513C20.1267 21.6513 22.0559 20.9167 23.5732 19.6919C19.9298 18.339 17.3336 14.8316 17.3336 10.7176Z" fill="#BDCCD4"/>
<path d="M41.2844 27.5257C42.637 26.6061 44.2701 26.0681 46.029 26.0681C46.3951 26.0681 46.7552 26.0941 47.109 26.1392C44.1493 23.3566 40.1653 21.6511 35.7823 21.6511C35.1777 21.6511 34.5809 21.684 33.9932 21.7472C36.9047 23.0043 39.4165 25.0114 41.2844 27.5257Z" fill="#BDCCD4"/>
<path d="M19.814 21.7472C19.2262 21.684 18.6294 21.6511 18.0248 21.6511C8.88992 21.6511 1.48462 29.0565 1.48462 38.1915H8.99966C8.99966 30.8219 13.4526 24.4935 19.814 21.7472Z" fill="#BDCCD4"/>
<path d="M30.2339 19.6916C31.7511 20.9164 33.6803 21.6511 35.782 21.6511C40.6649 21.6511 44.6232 17.6929 44.6232 12.8099C44.6232 7.9271 40.665 3.96875 35.782 3.96875C35.1312 3.96875 34.4974 4.04108 33.8866 4.17454C35.4908 5.88583 36.4735 8.18667 36.4735 10.7173C36.4736 14.8316 33.8772 18.339 30.2339 19.6916Z" fill="#BDCCD4"/>
<path d="M41.2845 27.5256C39.4165 25.0111 36.9047 23.0042 33.9931 21.7472C31.8189 20.8086 29.4224 20.2876 26.9036 20.2876C24.3849 20.2876 21.9884 20.8086 19.8143 21.7472C13.4528 24.4936 9 30.822 9 38.1912H19.2422H34.5655H38.4183C37.8812 37.0804 37.5798 35.8342 37.5798 34.5175C37.5794 31.61 39.0485 29.0459 41.2845 27.5256Z" fill="#3380FF"/>
<path d="M36.4735 10.7177C36.4735 8.18703 35.4908 5.88629 33.8867 4.17489C32.1406 2.31203 29.6582 1.14771 26.9035 1.14771C24.1488 1.14771 21.6664 2.31203 19.9203 4.17478C18.3162 5.88608 17.3335 8.18692 17.3335 10.7176C17.3335 14.8316 19.9297 18.339 23.5731 19.6917C24.6103 20.0768 25.7322 20.2876 26.9035 20.2876C28.0748 20.2876 29.1966 20.0768 30.2339 19.6917C33.8772 18.3391 36.4735 14.8317 36.4735 10.7177Z" fill="#3380FF"/>
<path d="M47.109 26.1394C46.7551 26.0942 46.3953 26.0684 46.0291 26.0684C44.2702 26.0684 42.6372 26.6062 41.2845 27.5259C39.0486 29.0461 37.5796 31.6103 37.5796 34.5179C37.5796 35.8347 37.881 37.0807 38.4182 38.1917C39.7849 41.0179 42.6792 42.9674 46.029 42.9674C50.6956 42.9674 54.4786 39.1845 54.4786 34.5179C54.4787 30.2175 51.2652 26.67 47.109 26.1394Z" fill="#FF931E"/>
<path d="M13.3622 35.691C13.2772 35.691 13.1908 35.681 13.1043 35.6602C12.514 35.5183 12.1503 34.9248 12.2921 34.3343C13.2282 30.4398 15.7454 27.0229 19.1985 24.96C19.7198 24.6486 20.3948 24.8187 20.7062 25.34C21.0175 25.8612 20.8475 26.5363 20.3262 26.8476C17.3777 28.6092 15.2286 31.5253 14.4302 34.8482C14.3093 35.3522 13.8588 35.691 13.3622 35.691Z" fill="black"/>
<path d="M23.6608 25.4192C23.1631 25.4192 22.7119 25.0788 22.5919 24.5735C22.4518 23.9826 22.817 23.39 23.4078 23.2498C24.5408 22.9808 25.7109 22.8445 26.8859 22.8445C27.493 22.8445 27.9853 23.3367 27.9853 23.9439C27.9853 24.5511 27.493 25.0433 26.8859 25.0433C25.8817 25.0433 24.8824 25.1598 23.9156 25.3893C23.8303 25.4095 23.7448 25.4192 23.6608 25.4192Z" fill="black"/>
<path d="M47.588 25.0968C45.6919 23.3858 43.424 22.0799 40.9213 21.3164C43.7971 19.5724 45.7227 16.412 45.7227 12.8102C45.7227 7.32902 41.2633 2.86963 35.7821 2.86963C35.2612 2.86963 34.7497 2.91006 34.2501 2.98767C32.3356 1.16728 29.7478 0.0483398 26.9036 0.0483398C24.0593 0.0483398 21.4715 1.16718 19.5569 2.98778C19.0575 2.91016 18.5459 2.86974 18.0249 2.86974C12.5437 2.86974 8.08441 7.32913 8.08441 12.8103C8.08441 16.4121 10.01 19.5724 12.8856 21.3164C5.65809 23.5217 0.385254 30.252 0.385254 38.1916C0.385254 38.7988 0.877568 39.2911 1.48469 39.2911H8.99972H37.7611C39.4145 42.1438 42.5013 44.0668 46.0289 44.0668C51.2942 44.0668 55.5779 39.7833 55.5779 34.5179C55.5779 29.7834 52.1142 25.8433 47.588 25.0968ZM44.0732 25.1706C43.1781 25.3576 42.3289 25.6707 41.5444 26.0898C40.5719 24.9151 39.4609 23.8592 38.2367 22.9469C40.356 23.2867 42.3329 24.0586 44.0732 25.1706ZM43.5238 12.8102C43.5238 17.0789 40.0509 20.552 35.7821 20.552C34.6013 20.552 33.4821 20.2853 32.4798 19.8105C35.5328 17.9312 37.573 14.5585 37.573 10.718C37.573 8.64653 36.9789 6.71145 35.9533 5.07303C40.1431 5.16455 43.5238 8.59878 43.5238 12.8102ZM26.9036 2.24721C28.6853 2.24721 30.3392 2.8014 31.7049 3.74463C32.3807 4.2115 32.9853 4.77378 33.4998 5.41216C34.6709 6.86528 35.374 8.71057 35.374 10.7177C35.374 14.1245 33.3513 17.0661 30.4445 18.4096C29.7108 18.7487 28.9211 18.986 28.0928 19.1031C27.704 19.1579 27.3073 19.1882 26.9036 19.1882C26.4998 19.1882 26.1031 19.158 25.7143 19.1031C24.886 18.9861 24.0963 18.7488 23.3625 18.4096C20.4559 17.0661 18.4331 14.1245 18.4331 10.7177C18.4331 8.71046 19.1363 6.86528 20.3074 5.41216C20.8218 4.77378 21.4265 4.2115 22.1023 3.74463C23.4678 2.8015 25.1219 2.24721 26.9036 2.24721ZM10.2833 12.8102C10.2833 8.59878 13.664 5.16455 17.8538 5.07281C16.8281 6.71123 16.2342 8.64621 16.2342 10.7178C16.2342 14.5584 18.2742 17.9311 21.3273 19.8103C20.3249 20.2851 19.2057 20.5518 18.025 20.5518C13.7562 20.5519 10.2833 17.0789 10.2833 12.8102ZM15.5706 22.9468C11.194 26.2088 8.26443 31.3081 7.93274 37.0922H2.62293C3.13033 29.9096 8.57263 24.0692 15.5706 22.9468ZM10.1346 37.0922C10.5453 30.7612 14.4786 25.3753 19.9887 22.8776C21.2762 22.2939 22.6497 21.8675 24.0847 21.6242C25.0015 21.4688 25.9431 21.3874 26.9035 21.3874C27.8639 21.3874 28.8055 21.4688 29.7222 21.6242C31.1572 21.8676 32.5307 22.2939 33.8183 22.8776C36.1078 23.9155 38.1252 25.4513 39.7305 27.3472C37.739 29.0985 36.4799 31.6638 36.4799 34.5181C36.4799 35.4098 36.6032 36.273 36.8328 37.0923H10.1346V37.0922ZM46.0289 41.8679C43.797 41.8679 41.7956 40.8665 40.4466 39.2909C39.8933 38.6448 39.4494 37.9025 39.1453 37.0921C38.8445 36.2905 38.6788 35.4233 38.6788 34.5179C38.6788 32.3872 39.5908 30.4664 41.0441 29.1227C41.5822 28.6251 42.1942 28.2062 42.8623 27.8859C43.8219 27.4259 44.8956 27.1678 46.0289 27.1678C46.2241 27.1678 46.4171 27.1778 46.6085 27.1928C48.1921 27.3171 49.6355 27.9443 50.7796 28.9158C52.3682 30.2651 53.379 32.2752 53.379 34.518C53.379 34.9617 53.3373 35.3956 53.2616 35.8179C53.0266 37.1284 52.4439 38.3191 51.6115 39.2912C50.2623 40.8665 48.2609 41.8679 46.0289 41.8679Z" fill="black"/>
<path d="M46.4589 30.1299L46.7687 31.0834C47.1104 32.1352 48.0904 32.8472 49.1963 32.8472H50.1991C50.6039 32.8472 50.7723 33.3653 50.4448 33.6033L49.6337 34.1927C48.739 34.8427 48.3647 35.9947 48.7064 37.0465L49.0162 38.0001C49.1413 38.3851 48.7006 38.7054 48.373 38.4674L47.5618 37.8781C46.6672 37.228 45.4556 37.228 44.561 37.8781L43.7498 38.4674C43.4223 38.7054 42.9815 38.3851 43.1066 38.0001L43.4164 37.0465C43.7581 35.9947 43.3837 34.8427 42.4891 34.1927L41.6779 33.6033C41.3504 33.3653 41.5187 32.8472 41.9237 32.8472H42.9265C44.0322 32.8472 45.0124 32.1351 45.3541 31.0834L45.6639 30.1299C45.7889 29.7448 46.3337 29.7448 46.4589 30.1299Z" fill="#BDCCD4"/>
<path d="M48.6184 39.6475C48.3058 39.6475 47.9934 39.5506 47.7266 39.3568L46.9153 38.7673C46.4045 38.3963 45.7179 38.3963 45.2072 38.7673L44.396 39.3567C43.8624 39.7442 43.1454 39.7443 42.612 39.3566C42.0785 38.969 41.8571 38.2871 42.061 37.6601L42.3707 36.7066C42.5658 36.1059 42.3536 35.4531 41.8428 35.0819L41.0316 34.4926C40.498 34.105 40.2766 33.423 40.4804 32.796C40.6843 32.1689 41.2641 31.7476 41.9235 31.7476H42.9263C43.5577 31.7476 44.1131 31.3441 44.3081 30.7436L44.6179 29.7899C44.8217 29.1627 45.4015 28.7415 46.0609 28.7415C46.7203 28.7413 47.3004 29.1626 47.5042 29.7898V29.7899L47.8141 30.7436C48.0092 31.3441 48.5645 31.7476 49.196 31.7476H50.1988C50.8582 31.7476 51.4381 32.1689 51.6419 32.7961C51.8457 33.4232 51.6242 34.105 51.0907 34.4926L50.2795 35.0819C49.7686 35.4531 49.5565 36.106 49.7516 36.7064L50.0614 37.6602C50.2652 38.2872 50.0437 38.9689 49.5104 39.3566C49.2438 39.5505 48.9312 39.6475 48.6184 39.6475ZM43.7409 33.8555C44.3973 34.6052 44.7176 35.5909 44.6272 36.5833C45.543 36.1908 46.5794 36.1908 47.4954 36.5833C47.4051 35.5909 47.7252 34.6054 48.3818 33.8555C47.4101 33.6347 46.5716 33.0257 46.0615 32.1698C45.551 33.0258 44.7127 33.6348 43.7409 33.8555Z" fill="black"/>
<path d="M46.0377 43.5985C51.0684 43.5985 55.1466 39.5203 55.1466 34.4896C55.1466 29.4588 51.0684 25.3806 46.0377 25.3806C41.0069 25.3806 36.9287 29.4588 36.9287 34.4896C36.9287 39.5203 41.0069 43.5985 46.0377 43.5985Z" fill="#FFE3A8"/>
<path d="M49.8916 36.6191C49.8916 35.1096 49.0012 34.1844 47.2204 33.7949L46.5936 33.6719V31.0773C47.0721 31.1774 47.4497 31.461 47.6382 31.8391C47.7975 32.159 48.1228 32.3619 48.4803 32.3619C49.2085 32.3619 49.6809 31.5591 49.2932 30.9427C48.7871 30.1381 47.8385 29.5985 46.5937 29.4602V29.0121C46.5937 28.6591 46.3075 28.373 45.9546 28.373C45.6017 28.373 45.3156 28.6592 45.3156 29.0121V29.4601C43.3398 29.6752 42.1841 30.7565 42.1841 32.4106C42.1841 33.8575 43.0814 34.8245 44.7579 35.214L45.3155 35.3455V38.0721C44.7508 37.9671 44.3213 37.6777 44.1092 37.2712C43.9445 36.9553 43.6246 36.7513 43.2683 36.7513H43.1743C42.4456 36.7513 41.9787 37.5515 42.3616 38.1715C42.8831 39.0159 43.9125 39.5481 45.3154 39.6658V39.9671C45.3154 40.3201 45.6016 40.6062 45.9545 40.6062C46.3074 40.6062 46.5935 40.32 46.5935 39.9671V39.6593C48.703 39.4422 49.8916 38.3535 49.8916 36.6191ZM44.1944 32.2367C44.1944 31.6296 44.653 31.1701 45.3155 31.0671V33.4031C44.5833 33.2036 44.1944 32.8039 44.1944 32.2367ZM46.5936 38.0969V35.5873C47.4994 35.7912 47.9229 36.1945 47.9229 36.8416C47.9229 37.5465 47.4327 38.0088 46.5936 38.0969Z" fill="#FFB800"/>
<path d="M46.0377 44.9999C40.2424 44.9999 35.5273 40.2849 35.5273 34.4896C35.5273 28.6943 40.2424 23.9792 46.0377 23.9792C51.833 23.9792 56.548 28.6943 56.548 34.4896C56.548 40.2849 51.833 44.9999 46.0377 44.9999ZM46.0377 26.782C41.7878 26.782 38.3301 30.2397 38.3301 34.4895C38.3301 38.7397 41.7879 42.197 46.0377 42.197C50.2875 42.197 53.7452 38.7396 53.7452 34.4895C53.7453 30.2397 50.2875 26.782 46.0377 26.782Z" fill="#FFC327"/>
</svg>
