<svg width="56" height="45" viewBox="0 0 56 45" fill="none" xmlns="http://www.w3.org/2000/svg">
<path d="M16.9483 10.6692C16.9483 8.13858 17.931 5.83784 19.5352 4.12644C18.9243 3.99299 18.2905 3.92065 17.6398 3.92065C12.7569 3.92065 8.79858 7.87889 8.79858 12.7618C8.79858 17.6446 12.7568 21.603 17.6398 21.603C19.7415 21.603 21.6706 20.8684 23.1879 19.6435C19.5445 18.2907 16.9483 14.7833 16.9483 10.6692Z" fill="#BDCCD4"/>
<path d="M40.8994 27.4774C42.2519 26.5577 43.8851 26.0198 45.644 26.0198C46.0101 26.0198 46.3702 26.0458 46.724 26.0909C43.7642 23.3083 39.7802 21.6028 35.3973 21.6028C34.7926 21.6028 34.1959 21.6357 33.6082 21.6988C36.5197 22.956 39.0315 24.9631 40.8994 27.4774Z" fill="#BDCCD4"/>
<path d="M19.4287 21.6988C18.841 21.6357 18.2441 21.6028 17.6396 21.6028C8.50466 21.6028 1.09937 29.0082 1.09937 38.1431H8.6144C8.6144 30.7736 13.0673 24.4452 19.4287 21.6988Z" fill="#BDCCD4"/>
<path d="M29.8486 19.6433C31.3659 20.8681 33.295 21.6028 35.3968 21.6028C40.2796 21.6028 44.238 17.6445 44.238 12.7616C44.238 7.87876 40.2797 3.92041 35.3968 3.92041C34.7459 3.92041 34.1122 3.99274 33.5014 4.1262C35.1055 5.83749 36.0882 8.13833 36.0882 10.669C36.0883 14.7832 33.492 18.2907 29.8486 19.6433Z" fill="#BDCCD4"/>
<path d="M40.8992 27.4773C39.0313 24.9628 36.5195 22.9559 33.6078 21.6988C31.4337 20.7602 29.0371 20.2393 26.5184 20.2393C23.9997 20.2393 21.6031 20.7602 19.4291 21.6988C13.0676 24.4452 8.61475 30.7736 8.61475 38.1429H18.857H34.1803H38.0331C37.4959 37.032 37.1945 35.7859 37.1945 34.4691C37.1942 31.5616 38.6633 28.9975 40.8992 27.4773Z" fill="#3380FF"/>
<path d="M36.0882 10.6694C36.0882 8.13869 35.1055 5.83795 33.5014 4.12655C31.7554 2.26369 29.2729 1.09937 26.5182 1.09937C23.7636 1.09937 21.2812 2.26369 19.5351 4.12644C17.9309 5.83774 16.9482 8.13858 16.9482 10.6693C16.9482 14.7833 19.5445 18.2907 23.1878 19.6433C24.225 20.0285 25.3469 20.2392 26.5182 20.2392C27.6896 20.2392 28.8113 20.0285 29.8487 19.6433C33.4919 18.2908 36.0882 14.7834 36.0882 10.6694Z" fill="#3380FF"/>
<path d="M46.7236 26.0911C46.3697 26.0459 46.0098 26.02 45.6436 26.02C43.8847 26.02 42.2517 26.5578 40.899 27.4776C38.6631 28.9977 37.1941 31.5619 37.1941 34.4696C37.1941 35.7863 37.4955 37.0324 38.0327 38.1433C39.3994 40.9696 42.2937 42.9191 45.6435 42.9191C50.3101 42.9191 54.0931 39.1361 54.0931 34.4696C54.0932 30.1692 50.8797 26.6216 46.7236 26.0911Z" fill="#7AC943"/>
<path d="M12.9769 35.6426C12.892 35.6426 12.8055 35.6327 12.719 35.6119C12.1287 35.4699 11.765 34.8765 11.9069 34.286C12.8429 30.3915 15.3601 26.9746 18.8132 24.9116C19.3345 24.6002 20.0095 24.7703 20.321 25.2916C20.6323 25.8128 20.4623 26.488 19.941 26.7993C16.9925 28.5608 14.8433 31.477 14.045 34.7999C13.924 35.3038 13.4735 35.6426 12.9769 35.6426Z" fill="black"/>
<path d="M23.2753 25.3709C22.7776 25.3709 22.3264 25.0305 22.2065 24.5251C22.0663 23.9343 22.4315 23.3417 23.0223 23.2015C24.1553 22.9325 25.3254 22.7961 26.5004 22.7961C27.1075 22.7961 27.5998 23.2883 27.5998 23.8956C27.5998 24.5028 27.1075 24.995 26.5004 24.995C25.4962 24.995 24.4969 25.1114 23.5301 25.3409C23.4448 25.3612 23.3594 25.3709 23.2753 25.3709Z" fill="black"/>
<path d="M47.2027 25.0485C45.3067 23.3374 43.0387 22.0316 40.5361 21.268C43.4118 19.5241 45.3374 16.3636 45.3374 12.7619C45.3374 7.28069 40.878 2.82129 35.3968 2.82129C34.8759 2.82129 34.3644 2.86172 33.8649 2.93933C31.9504 1.11894 29.3626 0 26.5183 0C23.6741 0 21.0863 1.11884 19.1717 2.93944C18.6723 2.86182 18.1606 2.8214 17.6397 2.8214C12.1584 2.8214 7.69916 7.28079 7.69916 12.762C7.69916 16.3638 9.62475 19.5241 12.5004 21.268C5.27284 23.4734 0 30.2036 0 38.1433C0 38.7505 0.492314 39.2427 1.09943 39.2427H8.61447H37.3759C39.0293 42.0955 42.1161 44.0185 45.6437 44.0185C50.909 44.0185 55.1926 39.7349 55.1926 34.4695C55.1926 29.735 51.729 25.795 47.2027 25.0485ZM43.688 25.1222C42.7928 25.3093 41.9436 25.6223 41.1592 26.0414C40.1866 24.8668 39.0756 23.8109 37.8515 22.8986C39.9708 23.2384 41.9477 24.0103 43.688 25.1222ZM43.1385 12.7619C43.1385 17.0306 39.6656 20.5036 35.3968 20.5036C34.2161 20.5036 33.0968 20.2369 32.0945 19.7622C35.1476 17.8828 37.1878 14.5102 37.1878 10.6696C37.1878 8.59819 36.5937 6.66311 35.5681 5.02469C39.7579 5.11621 43.1385 8.55044 43.1385 12.7619ZM26.5183 2.19887C28.3 2.19887 29.954 2.75306 31.3197 3.69629C31.9955 4.16316 32.6001 4.72544 33.1145 5.36382C34.2856 6.81694 34.9888 8.66223 34.9888 10.6693C34.9888 14.0762 32.9661 17.0178 30.0593 18.3613C29.3255 18.7004 28.5359 18.9376 27.7076 19.0547C27.3187 19.1096 26.922 19.1399 26.5183 19.1399C26.1145 19.1399 25.7178 19.1097 25.329 19.0547C24.5008 18.9378 23.7111 18.7005 22.9773 18.3613C20.0706 17.0178 18.0479 14.0762 18.0479 10.6693C18.0479 8.66212 18.7511 6.81694 19.9222 5.36382C20.4366 4.72544 21.0412 4.16316 21.717 3.69629C23.0826 2.75316 24.7366 2.19887 26.5183 2.19887ZM9.89802 12.7619C9.89802 8.55044 13.2788 5.11621 17.4686 5.02447C16.4429 6.66289 15.8489 8.59787 15.8489 10.6694C15.8489 14.5101 17.889 17.8827 20.942 19.762C19.9396 20.2367 18.8205 20.5034 17.6398 20.5034C13.371 20.5035 9.89802 17.0306 9.89802 12.7619ZM15.1853 22.8985C10.8087 26.1604 7.87918 31.2597 7.54748 37.0438H2.23767C2.74508 29.8613 8.18737 24.0209 15.1853 22.8985ZM9.74937 37.0438C10.1601 30.7129 14.0933 25.3269 19.6034 22.8293C20.891 22.2455 22.2644 21.8192 23.6994 21.5759C24.6162 21.4205 25.5579 21.3391 26.5182 21.3391C27.4786 21.3391 28.4202 21.4205 29.3369 21.5759C30.7719 21.8193 32.1454 22.2455 33.433 22.8293C35.7226 23.8671 37.7399 25.4029 39.3452 27.2989C37.3538 29.0502 36.0947 31.6155 36.0947 34.4697C36.0947 35.3614 36.2179 36.2247 36.4475 37.044H9.74937V37.0438ZM45.6437 41.8195C43.4117 41.8195 41.4103 40.8182 40.0613 39.2426C39.508 38.5965 39.0641 37.8542 38.76 37.0437C38.4592 36.2422 38.2936 35.3749 38.2936 34.4695C38.2936 32.3389 39.2055 30.418 40.6589 29.0743C41.197 28.5767 41.809 28.1578 42.4771 27.8376C43.4366 27.3776 44.5104 27.1194 45.6437 27.1194C45.8389 27.1194 46.0318 27.1294 46.2233 27.1444C47.8068 27.2687 49.2503 27.896 50.3943 28.8675C51.9829 30.2168 52.9938 32.2269 52.9938 34.4696C52.9938 34.9133 52.9521 35.3472 52.8764 35.7696C52.6414 37.0801 52.0586 38.2708 51.2262 39.2428C49.877 40.8182 47.8756 41.8195 45.6437 41.8195Z" fill="black"/>
<path d="M49.5157 33.5403H46.7568V30.7816C46.7568 30.1743 46.2645 29.6821 45.6573 29.6821C45.0502 29.6821 44.5579 30.1743 44.5579 30.7816V33.5403H41.7991C41.192 33.5403 40.6997 34.0325 40.6997 34.6398C40.6997 35.247 41.192 35.7392 41.7991 35.7392H44.5579V38.498C44.5579 39.1052 45.0502 39.5974 45.6573 39.5974C46.2645 39.5974 46.7568 39.1052 46.7568 38.498V35.7392H49.5157C50.1228 35.7392 50.6151 35.247 50.6151 34.6398C50.6151 34.0325 50.1229 33.5403 49.5157 33.5403Z" fill="black"/>
</svg>
