<svg width="56" height="45" viewBox="0 0 56 45" fill="none" xmlns="http://www.w3.org/2000/svg">
<path d="M17.141 10.6692C17.141 8.13858 18.1237 5.83784 19.7278 4.12644C19.1169 3.99299 18.4832 3.92065 17.8324 3.92065C12.9496 3.92065 8.99121 7.87889 8.99121 12.7618C8.99121 17.6446 12.9494 21.603 17.8324 21.603C19.9341 21.603 21.8633 20.8684 23.3805 19.6435C19.7372 18.2907 17.141 14.7833 17.141 10.6692Z" fill="#BDCCD4"/>
<path d="M41.0918 27.4774C42.4443 26.5577 44.0775 26.0198 45.8364 26.0198C46.2025 26.0198 46.5625 26.0458 46.9163 26.0909C43.9566 23.3083 39.9726 21.6028 35.5897 21.6028C34.985 21.6028 34.3883 21.6357 33.8005 21.6988C36.7121 22.956 39.2239 24.9631 41.0918 27.4774Z" fill="#BDCCD4"/>
<path d="M19.6213 21.6988C19.0336 21.6357 18.4367 21.6028 17.8322 21.6028C8.69729 21.6028 1.29199 29.0082 1.29199 38.1431H8.80703C8.80703 30.7736 13.26 24.4452 19.6213 21.6988Z" fill="#BDCCD4"/>
<path d="M30.0415 19.6433C31.5588 20.8681 33.4879 21.6028 35.5897 21.6028C40.4725 21.6028 44.4308 17.6445 44.4308 12.7616C44.4308 7.87876 40.4726 3.92041 35.5897 3.92041C34.9388 3.92041 34.305 3.99274 33.6942 4.1262C35.2984 5.83749 36.2811 8.13833 36.2811 10.669C36.2812 14.7832 33.6849 18.2907 30.0415 19.6433Z" fill="#BDCCD4"/>
<path d="M41.0918 27.4773C39.2239 24.9628 36.7121 22.9559 33.8005 21.6988C31.6263 20.7602 29.2297 20.2393 26.711 20.2393C24.1923 20.2393 21.7958 20.7602 19.6217 21.6988C13.2602 24.4452 8.80737 30.7736 8.80737 38.1429H19.0496H34.3729H38.2257C37.6885 37.032 37.3871 35.7859 37.3871 34.4691C37.3868 31.5616 38.8559 28.9975 41.0918 27.4773Z" fill="#3380FF"/>
<path d="M36.2809 10.6694C36.2809 8.13869 35.2982 5.83795 33.694 4.12655C31.948 2.26369 29.4655 1.09937 26.7109 1.09937C23.9562 1.09937 21.4738 2.26369 19.7277 4.12644C18.1236 5.83774 17.1409 8.13858 17.1409 10.6693C17.1409 14.7833 19.7371 18.2907 23.3804 19.6433C24.4177 20.0285 25.5395 20.2392 26.7109 20.2392C27.8822 20.2392 29.0039 20.0285 30.0413 19.6433C33.6845 18.2908 36.2809 14.7834 36.2809 10.6694Z" fill="#3380FF"/>
<path d="M46.9162 26.0911C46.5623 26.0459 46.2024 26.02 45.8363 26.02C44.0773 26.02 42.4443 26.5578 41.0916 27.4776C38.8557 28.9977 37.3867 31.5619 37.3867 34.4696C37.3867 35.7863 37.6881 37.0324 38.2253 38.1433C39.5921 40.9696 42.4863 42.9191 45.8361 42.9191C50.5027 42.9191 54.2857 39.1361 54.2857 34.4696C54.2858 30.1692 51.0723 26.6216 46.9162 26.0911Z" fill="#FF931E"/>
<path d="M13.1695 35.6426C13.0846 35.6426 12.9981 35.6327 12.9117 35.6119C12.3214 35.4699 11.9577 34.8765 12.0995 34.286C13.0355 30.3915 15.5527 26.9746 19.0058 24.9116C19.5271 24.6002 20.2022 24.7703 20.5136 25.2916C20.8249 25.8128 20.6549 26.488 20.1336 26.7993C17.1851 28.5608 15.0359 31.477 14.2376 34.7999C14.1166 35.3038 13.6662 35.6426 13.1695 35.6426Z" fill="black"/>
<path d="M23.4681 25.3709C22.9704 25.3709 22.5193 25.0305 22.3993 24.5251C22.2592 23.9343 22.6244 23.3417 23.2151 23.2015C24.3482 22.9325 25.5182 22.7961 26.6932 22.7961C27.3004 22.7961 27.7927 23.2883 27.7927 23.8956C27.7927 24.5028 27.3004 24.995 26.6932 24.995C25.6891 24.995 24.6898 25.1114 23.723 25.3409C23.6377 25.3612 23.5522 25.3709 23.4681 25.3709Z" fill="black"/>
<path d="M47.3954 25.0485C45.4993 23.3374 43.2313 22.0316 40.7287 21.268C43.6044 19.5241 45.53 16.3636 45.53 12.7619C45.53 7.28069 41.0706 2.82129 35.5894 2.82129C35.0686 2.82129 34.557 2.86172 34.0575 2.93933C32.143 1.11894 29.5552 0 26.711 0C23.8667 0 21.2789 1.11884 19.3643 2.93944C18.8649 2.86182 18.3533 2.8214 17.8323 2.8214C12.3511 2.8214 7.89178 7.28079 7.89178 12.762C7.89178 16.3638 9.81738 19.5241 12.693 21.268C5.46546 23.4734 0.192627 30.2036 0.192627 38.1433C0.192627 38.7505 0.684941 39.2427 1.29206 39.2427H8.8071H37.5685C39.2219 42.0955 42.3087 44.0185 45.8363 44.0185C51.1016 44.0185 55.3853 39.7349 55.3853 34.4695C55.3853 29.735 51.9216 25.795 47.3954 25.0485ZM43.8806 25.1222C42.9855 25.3093 42.1362 25.6223 41.3518 26.0414C40.3792 24.8668 39.2683 23.8109 38.0441 22.8986C40.1634 23.2384 42.1403 24.0103 43.8806 25.1222ZM43.3312 12.7619C43.3312 17.0306 39.8582 20.5036 35.5894 20.5036C34.4087 20.5036 33.2895 20.2369 32.2871 19.7622C35.3402 17.8828 37.3804 14.5102 37.3804 10.6696C37.3804 8.59819 36.7863 6.66311 35.7607 5.02469C39.9505 5.11621 43.3312 8.55044 43.3312 12.7619ZM26.711 2.19887C28.4927 2.19887 30.1466 2.75306 31.5123 3.69629C32.1881 4.16316 32.7927 4.72544 33.3071 5.36382C34.4782 6.81694 35.1814 8.66223 35.1814 10.6693C35.1814 14.0762 33.1587 17.0178 30.2519 18.3613C29.5181 18.7004 28.7285 18.9376 27.9002 19.0547C27.5114 19.1096 27.1147 19.1399 26.711 19.1399C26.3072 19.1399 25.9105 19.1097 25.5216 19.0547C24.6934 18.9378 23.9037 18.7005 23.1699 18.3613C20.2632 17.0178 18.2405 14.0762 18.2405 10.6693C18.2405 8.66212 18.9437 6.81694 20.1148 5.36382C20.6292 4.72544 21.2338 4.16316 21.9096 3.69629C23.2752 2.75316 24.9293 2.19887 26.711 2.19887ZM10.0906 12.7619C10.0906 8.55044 13.4714 5.11621 17.6612 5.02447C16.6355 6.66289 16.0415 8.59787 16.0415 10.6694C16.0415 14.5101 18.0816 17.8827 21.1347 19.762C20.1323 20.2367 19.0131 20.5034 17.8324 20.5034C13.5636 20.5035 10.0906 17.0306 10.0906 12.7619ZM15.3779 22.8985C11.0013 26.1604 8.07181 31.2597 7.74011 37.0438H2.4303C2.93771 29.8613 8.38 24.0209 15.3779 22.8985ZM9.942 37.0438C10.3527 30.7129 14.2859 25.3269 19.796 22.8293C21.0836 22.2455 22.457 21.8192 23.892 21.5759C24.8089 21.4205 25.7505 21.3391 26.7109 21.3391C27.6712 21.3391 28.6128 21.4205 29.5296 21.5759C30.9646 21.8193 32.338 22.2455 33.6257 22.8293C35.9152 23.8671 37.9325 25.4029 39.5379 27.2989C37.5464 29.0502 36.2873 31.6155 36.2873 34.4697C36.2873 35.3614 36.4105 36.2247 36.6401 37.044H9.942V37.0438ZM45.8363 41.8195C43.6043 41.8195 41.6029 40.8182 40.254 39.2426C39.7006 38.5965 39.2567 37.8542 38.9526 37.0437C38.6519 36.2422 38.4862 35.3749 38.4862 34.4695C38.4862 32.3389 39.3982 30.418 40.8515 29.0743C41.3896 28.5767 42.0016 28.1578 42.6697 27.8376C43.6292 27.3776 44.703 27.1194 45.8363 27.1194C46.0315 27.1194 46.2245 27.1294 46.4159 27.1444C47.9995 27.2687 49.4429 27.896 50.587 28.8675C52.1756 30.2168 53.1864 32.2269 53.1864 34.4696C53.1864 34.9133 53.1447 35.3472 53.069 35.7696C52.834 37.0801 52.2512 38.2708 51.4188 39.2428C50.0696 40.8182 48.0682 41.8195 45.8363 41.8195Z" fill="black"/>
<path d="M46.2663 30.0818L46.5761 31.0353C46.9178 32.0871 47.8978 32.7991 49.0037 32.7991H50.0064C50.4113 32.7991 50.5797 33.3172 50.2522 33.5552L49.441 34.1446C48.5464 34.7946 48.172 35.9466 48.5137 36.9984L48.8236 37.952C48.9487 38.337 48.5079 38.6573 48.1803 38.4193L47.3691 37.83C46.4745 37.1799 45.263 37.1799 44.3684 37.83L43.5572 38.4193C43.2297 38.6573 42.7889 38.337 42.914 37.952L43.2238 36.9984C43.5655 35.9466 43.1911 34.7946 42.2965 34.1446L41.4853 33.5552C41.1578 33.3172 41.3261 32.7991 41.7311 32.7991H42.7338C43.8396 32.7991 44.8197 32.087 45.1614 31.0353L45.4713 30.0818C45.5963 29.6967 46.1411 29.6967 46.2663 30.0818Z" fill="#BDCCD4"/>
<path d="M48.4258 39.5994C48.1132 39.5994 47.8008 39.5025 47.534 39.3087L46.7227 38.7192C46.2119 38.3482 45.5253 38.3482 45.0145 38.7192L44.2034 39.3086C43.6698 39.6961 42.9528 39.6962 42.4194 39.3085C41.8859 38.9209 41.6645 38.239 41.8683 37.612L42.1781 36.6585C42.3732 36.0578 42.161 35.405 41.6502 35.0338L40.839 34.4445C40.3054 34.0569 40.084 33.3749 40.2878 32.7479C40.4917 32.1208 41.0715 31.6995 41.7309 31.6995H42.7336C43.3651 31.6995 43.9205 31.296 44.1155 30.6955L44.4253 29.7418C44.6291 29.1146 45.2089 28.6934 45.8683 28.6934C46.5277 28.6933 47.1078 29.1145 47.3116 29.7417V29.7418L47.6214 30.6955C47.8165 31.296 48.3719 31.6995 49.0034 31.6995H50.0061C50.6655 31.6995 51.2455 32.1208 51.4492 32.748C51.6531 33.3751 51.4315 34.0569 50.8981 34.4445L50.0869 35.0338C49.576 35.405 49.3639 36.0579 49.559 36.6583L49.8688 37.6121C50.0725 38.2391 49.8511 38.9208 49.3177 39.3085C49.0512 39.5024 48.7385 39.5994 48.4258 39.5994ZM43.5483 33.8074C44.2047 34.5571 44.5249 35.5429 44.4346 36.5352C45.3503 36.1427 46.3868 36.1427 47.3028 36.5352C47.2124 35.5429 47.5326 34.5573 48.1892 33.8074C47.2175 33.5866 46.3789 32.9776 45.8688 32.1217C45.3584 32.9777 44.5201 33.5867 43.5483 33.8074Z" fill="black"/>
</svg>
