<svg width="52" height="43" viewBox="0 0 52 43" fill="none" xmlns="http://www.w3.org/2000/svg">
<rect x="0.65564" width="50.9934" height="43" rx="8" fill="#2F80ED" fill-opacity="0.2"/>
<path d="M38.9007 14.7812V12.0938C38.9007 10.6116 37.4713 9.40625 35.7136 9.40625H14.9975C12.3618 9.40625 10.2169 11.2149 10.2169 13.4375V29.5625C10.2169 32.5201 13.0757 33.5938 14.9975 33.5938H38.9007C40.6584 33.5938 42.0878 32.3884 42.0878 30.9062V17.4688C42.0878 15.9866 40.6584 14.7812 38.9007 14.7812ZM35.7136 26.875H32.5265V21.5H35.7136V26.875ZM14.9975 14.7812C14.5872 14.7658 14.1998 14.6174 13.916 14.3671C13.6321 14.1168 13.4737 13.7838 13.4737 13.4375C13.4737 13.0912 13.6321 12.7582 13.916 12.5079C14.1998 12.2576 14.5872 12.1092 14.9975 12.0938H35.7136V14.7812H14.9975Z" fill="#3380FF"/>
</svg>
