<svg width="192" height="181" viewBox="0 0 192 181" fill="none" xmlns="http://www.w3.org/2000/svg">
<g clip-path="url(#clip0_11_620)">
<path d="M1.83919 25.2808C-2.94877 39.3388 2.75881 54.5074 5.83887 69.0476C8.36801 81.0507 9.06694 93.3681 7.91177 105.581C7.06512 114.656 5.18202 123.672 5.328 132.791C5.38342 144.419 9.23874 155.71 16.3053 164.94C19.8637 169.506 24.3316 173.281 29.4254 176.026C34.5193 178.77 40.1276 180.424 45.8942 180.883C56.8423 181.526 67.3962 177.332 78.0086 174.745C88.2216 172.266 98.7341 171.247 109.232 171.72C116.239 172.027 123.231 173.006 130.253 173.109C148.646 173.343 169.856 165.992 180.906 150.473C201.693 121.246 191.518 76.778 163.739 55.8664C150.791 46.1193 135.07 40.5225 119.086 37.9944C107.656 36.1969 95.7299 35.8316 85.1613 31.1992C73.4834 26.1284 64.6519 16.4252 54.025 9.49849C34.4498 -3.2589 9.88237 1.72423 1.83919 25.2808Z" fill="#CDDDF9"/>
<g style="mix-blend-mode:multiply">
<path d="M164.367 153.863H22.6113V161.214H164.367V153.863Z" fill="#5A5A5A"/>
</g>
<path d="M135.727 67.9517H28.5817V155.558H135.727V67.9517Z" fill="#037EE6"/>
<path d="M158.09 67.9517H131.975V155.558H158.09V67.9517Z" fill="#0060C8"/>
<path d="M54.6673 67.9517H28.5817L13.9843 51.6287H40.0699L54.6673 67.9517Z" fill="#329CFF"/>
<path d="M131.975 67.9517H158.061L172.658 51.6287H146.573L131.975 67.9517Z" fill="#329CFF"/>
<path d="M100.912 96.5061H28.5817V134.252H100.912V96.5061Z" fill="white"/>
<path d="M85.3073 103.696H34.3185V106.662H85.3073V103.696Z" fill="#037EE6"/>
<path d="M85.3073 110.272H34.3185V113.238H85.3073V110.272Z" fill="#037EE6"/>
<path d="M59.0027 116.833H34.3185V119.8H59.0027V116.833Z" fill="#037EE6"/>
<path d="M107.364 120.486C107.364 121.931 106.936 123.344 106.134 124.546C105.332 125.747 104.192 126.684 102.858 127.237C101.525 127.79 100.057 127.934 98.6414 127.653C97.2256 127.371 95.925 126.675 94.9043 125.653C93.8836 124.631 93.1885 123.329 92.9069 121.912C92.6252 120.494 92.7697 119.025 93.3221 117.69C93.8746 116.355 94.8101 115.214 96.0103 114.411C97.2106 113.608 98.6218 113.18 100.065 113.18C102.001 113.18 103.858 113.95 105.226 115.32C106.595 116.69 107.364 118.548 107.364 120.486Z" fill="#03EB97"/>
<path d="M73.2352 32.7774L84.9132 51.6139L103.744 39.9233C103.744 39.9233 117.787 32.8066 119.801 24.3601C121.961 15.1392 116.677 8.13942 108.59 6.23969C106.139 5.66306 103.582 5.7114 101.154 6.3803C98.7263 7.04921 96.5048 8.31728 94.6934 10.0684C93.8538 7.69358 92.4312 5.56831 90.5563 3.88805C88.6814 2.20778 86.4146 1.02647 83.9643 0.452826C75.8627 -1.4469 68.0239 2.45486 65.8634 11.6758C63.8928 20.1369 73.2352 32.7774 73.2352 32.7774Z" fill="#03EB97"/>
</g>
<defs>
<clipPath id="clip0_11_620">
<rect width="192" height="181" fill="white"/>
</clipPath>
</defs>
</svg>
