<svg viewBox="0 0 450 349" fill="none" xmlns="http://www.w3.org/2000/svg">
<path d="M450 19C450 8.50656 441.493 0 431 0H19C8.50658 0 0 8.50659 0 19V323.262C0 330.518 4.08998 337.252 10.8718 339.832C29.2061 346.805 51.4845 350.563 78.3571 348.38C171.144 340.674 347.85 208.929 438.74 164.94C445.557 161.641 450 154.857 450 147.283V19Z" fill="#037EEE"/>
<path opacity="0.2" d="M450 19C450 8.50658 441.493 0 431 0H216.5C205.813 0 197.137 8.83438 198.479 19.4362C203.702 60.6791 222.021 99.5898 251.216 130.809C283.497 165.328 327.064 188.294 374.717 196.04C378.923 196.724 383.219 195.814 386.893 193.656C406.027 182.415 423.601 172.617 438.718 165.261C445.511 161.957 450 155.153 450 147.6V19Z" fill="white"/>
</svg>
